<svg width="32" height="32" viewBox="0 0 32 32" fill="none" xmlns="http://www.w3.org/2000/svg">
<g id="instagram">
<path id="Vector" d="M24.4796 5.91992C23.5196 5.91992 22.5596 6.71992 22.5596 7.83992C22.5596 8.95992 23.3596 9.75992 24.4796 9.75992C25.5996 9.75992 26.3996 8.95992 26.3996 7.83992C26.2396 6.71992 25.4396 5.91992 24.4796 5.91992Z" fill="#FBFDF7"/>
<path id="Vector_2" d="M16.0002 8.31982C11.6802 8.31982 8.16016 11.8398 8.16016 16.1598C8.16016 20.4798 11.6802 23.9998 16.0002 23.9998C20.3202 23.9998 23.8402 20.4798 23.8402 16.1598C24.0002 11.8398 20.4802 8.31982 16.0002 8.31982ZM16.0002 21.2798C13.2802 21.2798 10.8802 19.0398 10.8802 16.1598C10.8802 13.4398 13.1202 11.0398 16.0002 11.0398C18.7202 11.0398 21.1202 13.2798 21.1202 16.1598C21.1202 19.0398 18.8802 21.2798 16.0002 21.2798Z" fill="#FBFDF7"/>
<path id="Vector_3" d="M22.4 0H9.6C4.32 0 0 4.32 0 9.6V22.4C0 27.68 4.32 32 9.6 32H22.4C27.68 32 32 27.68 32 22.4V9.6C32 4.32 27.68 0 22.4 0ZM28.96 22.4C28.96 26.08 25.92 28.96 22.4 28.96H9.6C5.92 28.96 3.04 25.92 3.04 22.4V9.6C3.04 5.92 6.08 3.04 9.6 3.04H22.4C26.08 3.04 28.96 6.08 28.96 9.6V22.4Z" fill="#FBFDF7"/>
</g>
</svg>
