<svg width="32" height="32" viewBox="0 0 32 32" fill="none" xmlns="http://www.w3.org/2000/svg">
<g id="Property 1=negro">
<path id="Vector" d="M24.4801 5.92004C23.5201 5.92004 22.5601 6.72004 22.5601 7.84004C22.5601 8.96004 23.3601 9.76004 24.4801 9.76004C25.6001 9.76004 26.4001 8.96004 26.4001 7.84004C26.2401 6.72004 25.4401 5.92004 24.4801 5.92004Z" fill="#121417"/>
<path id="Vector_2" d="M16.0002 8.31995C11.6802 8.31995 8.16016 11.8399 8.16016 16.1599C8.16016 20.4799 11.6802 23.9999 16.0002 23.9999C20.3202 23.9999 23.8402 20.4799 23.8402 16.1599C24.0002 11.8399 20.4802 8.31995 16.0002 8.31995ZM16.0002 21.2799C13.2802 21.2799 10.8802 19.0399 10.8802 16.1599C10.8802 13.4399 13.1202 11.0399 16.0002 11.0399C18.7202 11.0399 21.1202 13.2799 21.1202 16.1599C21.1202 19.0399 18.8802 21.2799 16.0002 21.2799Z" fill="#121417"/>
<path id="Vector_3" d="M22.4 0H9.6C4.32 0 0 4.32 0 9.6V22.4C0 27.68 4.32 32 9.6 32H22.4C27.68 32 32 27.68 32 22.4V9.6C32 4.32 27.68 0 22.4 0ZM28.96 22.4C28.96 26.08 25.92 28.96 22.4 28.96H9.6C5.92 28.96 3.04 25.92 3.04 22.4V9.6C3.04 5.92 6.08 3.04 9.6 3.04H22.4C26.08 3.04 28.96 6.08 28.96 9.6V22.4Z" fill="#121417"/>
</g>
</svg>
