<svg width="20" height="20" viewBox="0 0 20 20" fill="none" xmlns="http://www.w3.org/2000/svg">
<g id="tel&#195;&#169;fono">
<path id="Vector" d="M2.11889 1.96857H6.53833L7.9626 5.52972L5.67413 7.05537C5.53937 7.14528 5.42888 7.26707 5.35247 7.40992C5.27606 7.55278 5.2361 7.71229 5.23612 7.87429C5.23908 7.96682 5.23612 7.87528 5.23612 7.87528V7.89595C5.23671 7.93996 5.23868 7.98395 5.24203 8.02784C5.24793 8.10855 5.25778 8.21781 5.27648 8.35266C5.31487 8.61841 5.38869 8.98457 5.53239 9.41568C5.82177 10.2819 6.38872 11.403 7.49309 12.5073C8.59746 13.6117 9.71856 14.1786 10.5838 14.468C11.0159 14.6117 11.381 14.6846 11.6488 14.7239C11.7999 14.745 11.952 14.7582 12.1045 14.7633L12.1173 14.7643H12.1251C12.1251 14.7643 12.2354 14.7584 12.1261 14.7643C12.3089 14.7642 12.488 14.7132 12.6434 14.6171C12.7988 14.521 12.9244 14.3835 13.0061 14.22L13.6656 12.901L18.0318 13.6294V17.8815C15.954 18.1817 10.3416 18.478 5.93201 14.0684C1.52241 9.6588 1.8177 4.04542 2.11889 1.96857ZM7.27655 8.35266L9.05515 7.16757C9.4309 6.91695 9.70903 6.54473 9.84291 6.11337C9.97678 5.682 9.95825 5.21772 9.79042 4.7984L8.36615 1.23725C8.22 0.871985 7.96775 0.558892 7.64195 0.33836C7.31616 0.117828 6.93175 -2.63724e-05 6.53833 4.42655e-09H2.0677C1.17299 4.42655e-09 0.331423 0.621085 0.184765 1.59159C-0.149893 3.79836 -0.603649 10.3163 4.54023 15.4602C9.68411 20.6041 16.2021 20.1493 18.4088 19.8157C19.3793 19.668 20.0004 18.8274 20.0004 17.9327V13.6294C20.0005 13.1634 19.8352 12.7125 19.534 12.3569C19.2329 12.0013 18.8153 11.7641 18.3557 11.6874L13.9894 10.96C13.5741 10.8907 13.1475 10.9564 12.7723 11.1473C12.3971 11.3383 12.093 11.6445 11.9047 12.0211L11.5641 12.7032C11.4437 12.6735 11.3245 12.6391 11.2068 12.5999C10.5965 12.3971 9.74908 11.9798 8.88487 11.1155C8.02067 10.2513 7.60333 9.40387 7.40057 8.79263C7.35215 8.64814 7.31109 8.5013 7.27753 8.35266H7.27655Z" fill="#FBFDF7"/>
</g>
</svg>
