<svg width="32" height="32" viewBox="0 0 32 32" fill="none" xmlns="http://www.w3.org/2000/svg">
<g id="Property 1=negro">
<path id="Vector" fill-rule="evenodd" clip-rule="evenodd" d="M27.2154 4.6503C24.2207 1.65312 20.238 0.00168461 15.9949 0C7.25208 0 0.136497 7.11286 0.132998 15.8557C0.131832 18.6504 0.862262 21.3784 2.25025 23.783L0 32L8.40863 29.795C10.7254 31.0582 13.3338 31.7239 15.9886 31.7251H15.9951C24.737 31.7251 31.8532 24.6113 31.8568 15.8684C31.8585 11.6315 30.2101 7.64748 27.2154 4.6503ZM15.9951 29.0469H15.9897C13.6241 29.046 11.3037 28.4107 9.27961 27.2099L8.79816 26.9242L3.80843 28.2327L5.14031 23.3693L4.8268 22.8707C3.5071 20.7723 2.81006 18.3469 2.8111 15.8567C2.81399 8.59 8.72823 2.6781 16.0003 2.6781C19.5216 2.67944 22.8318 4.05214 25.3209 6.54329C27.81 9.03444 29.18 12.3458 29.1787 15.8673C29.1757 23.1346 23.2615 29.0469 15.9951 29.0469ZM23.2266 19.1762C22.8302 18.9779 20.8817 18.0194 20.5184 17.8872C20.1551 17.7549 19.8909 17.6888 19.6267 18.0855C19.3625 18.4821 18.6029 19.3746 18.3717 19.639C18.1405 19.9034 17.9094 19.9365 17.513 19.7382C17.1167 19.5398 15.8397 19.1215 14.3258 17.7717C13.1477 16.7211 12.3522 15.4236 12.121 15.0269C11.8898 14.6303 12.0964 14.4158 12.2948 14.2183C12.4731 14.0408 12.6911 13.7556 12.8893 13.5242C13.0874 13.2928 13.1535 13.1276 13.2856 12.8632C13.4177 12.5987 13.3517 12.3673 13.2526 12.169C13.1535 11.9707 12.3609 10.0205 12.0306 9.22726C11.7089 8.45467 11.3821 8.5592 11.1389 8.54711C10.9079 8.53562 10.6435 8.53316 10.3793 8.53316C10.1151 8.53316 9.68569 8.63233 9.32238 9.02895C8.95911 9.42561 7.93529 10.3842 7.93529 12.3343C7.93529 14.2844 9.35542 16.1684 9.5536 16.4329C9.75174 16.6973 12.3483 20.6993 16.3241 22.4155C17.2696 22.8237 18.0079 23.0674 18.5835 23.2501C19.5329 23.5516 20.3969 23.509 21.0798 23.4071C21.8413 23.2933 23.4247 22.4486 23.755 21.5231C24.0853 20.5976 24.0853 19.8043 23.9862 19.639C23.8871 19.4738 23.6229 19.3746 23.2266 19.1762Z" fill="#121417"/>
</g>
</svg>
