<svg width="185" height="185" viewBox="0 0 185 185" fill="none" xmlns="http://www.w3.org/2000/svg">
<g id="logo_isologo 2">
<rect width="185" height="185" fill="#121417"/>
<path id="Vector" d="M61.7322 46.5064L59.7026 42.1658L88.1596 27.6966C89.2608 27.146 89.8112 27.146 90.9124 27.6966L119.438 42.1658L117.061 46.5064L90.9124 33.2024C89.8112 32.6517 89.4312 32.6517 88.33 33.2024L61.7322 46.5064Z" fill="#04B3A7"/>
<path id="Vector_2" d="M66.6879 53.0229C65.3874 51.2606 63.1137 51.2606 61.7329 53.0229V86.0576H66.6879V78.0277H112.936V86.0576H117.891V72.8437H66.6879V53.0229Z" fill="#04B3A7"/>
<path id="Vector_3" d="M117.891 70.3803H69.4404V65.7295C69.4404 65.7295 69.4611 65.4796 69.6245 65.3161C69.7279 65.2127 70.0379 65.2127 70.0379 65.2127H79.6491V57.5649L115.138 60.7315C116.751 60.8722 117.681 62.0092 117.891 63.4843V70.3803Z" fill="#04B3A7"/>
<path id="Vector_4" d="M28.9873 158.673H31.1346V170.235H28.9873V158.673ZM23.0081 170.235H20.8608V158.673H23.0081V170.235ZM29.1525 165.279H22.8264V163.446H29.1525V165.279ZM37.6684 170.35C36.7652 170.35 35.9615 170.158 35.2567 169.772C34.5519 169.376 33.996 168.836 33.5884 168.154C33.1811 167.471 32.9773 166.695 32.9773 165.825C32.9773 164.944 33.1811 164.167 33.5884 163.496C33.996 162.813 34.5519 162.279 35.2567 161.894C35.9615 161.508 36.7652 161.315 37.6684 161.315C38.5822 161.315 39.3916 161.508 40.0964 161.894C40.8122 162.279 41.3681 162.807 41.7645 163.479C42.1721 164.151 42.3756 164.933 42.3756 165.825C42.3756 166.695 42.1721 167.471 41.7645 168.154C41.3681 168.836 40.8122 169.376 40.0964 169.772C39.3916 170.158 38.5822 170.35 37.6684 170.35ZM37.6684 168.583C38.1749 168.583 38.6261 168.473 39.0225 168.253C39.4192 168.032 39.7274 167.713 39.9475 167.295C40.1789 166.876 40.2945 166.386 40.2945 165.825C40.2945 165.252 40.1789 164.762 39.9475 164.354C39.7274 163.936 39.4192 163.617 39.0225 163.397C38.6261 163.176 38.1803 163.066 37.6848 163.066C37.1783 163.066 36.7267 163.176 36.3303 163.397C35.9449 163.617 35.6367 163.936 35.4053 164.354C35.1742 164.762 35.0587 165.252 35.0587 165.825C35.0587 166.386 35.1742 166.876 35.4053 167.295C35.6367 167.713 35.9449 168.032 36.3303 168.253C36.7267 168.473 37.1728 168.583 37.6684 168.583ZM46.7449 170.35C46.0073 170.35 45.2971 170.257 44.6144 170.069C43.9426 169.871 43.4085 169.635 43.0122 169.359L43.8049 167.79C44.2013 168.044 44.6747 168.253 45.2255 168.418C45.7759 168.583 46.3267 168.666 46.8771 168.666C47.5268 168.666 47.9947 168.578 48.281 168.401C48.5785 168.225 48.7271 167.988 48.7271 167.691C48.7271 167.449 48.628 167.267 48.4296 167.146C48.2316 167.014 47.9729 166.915 47.6535 166.849C47.3342 166.783 46.9763 166.722 46.5799 166.667C46.1945 166.612 45.8035 166.541 45.4072 166.452C45.0217 166.353 44.6693 166.215 44.3499 166.04C44.0306 165.852 43.7719 165.604 43.5738 165.296C43.3755 164.988 43.2763 164.58 43.2763 164.074C43.2763 163.512 43.4361 163.028 43.7555 162.62C44.0749 162.202 44.5207 161.882 45.0933 161.662C45.6768 161.431 46.3652 161.315 47.158 161.315C47.7524 161.315 48.3526 161.381 48.9582 161.514C49.5639 161.646 50.0649 161.833 50.4613 162.075L49.6685 163.645C49.25 163.391 48.8263 163.221 48.3966 163.132C47.9783 163.033 47.5598 162.984 47.1413 162.984C46.5138 162.984 46.0459 163.077 45.7374 163.264C45.4402 163.452 45.2916 163.688 45.2916 163.975C45.2916 164.239 45.3905 164.437 45.5888 164.569C45.7869 164.701 46.0459 164.806 46.3652 164.883C46.6846 164.96 47.0367 165.026 47.4221 165.081C47.8185 165.125 48.2094 165.197 48.5949 165.296C48.9804 165.395 49.3328 165.533 49.6521 165.709C49.9824 165.874 50.2466 166.111 50.4449 166.419C50.643 166.728 50.7421 167.129 50.7421 167.625C50.7421 168.175 50.5771 168.655 50.2466 169.062C49.9272 169.47 49.4705 169.789 48.8757 170.02C48.281 170.24 47.5707 170.35 46.7449 170.35ZM55.51 170.35C54.5407 170.35 53.7919 170.103 53.2636 169.607C52.735 169.1 52.4708 168.357 52.4708 167.377V159.466H54.5352V167.328C54.5352 167.746 54.6399 168.071 54.8491 168.302C55.0693 168.533 55.3723 168.649 55.7575 168.649C56.2199 168.649 56.6054 168.528 56.9138 168.286L57.4919 169.756C57.2496 169.954 56.9524 170.103 56.6 170.202C56.2475 170.301 55.8842 170.35 55.51 170.35ZM51.0172 163.132V161.481H56.8972V163.132H51.0172ZM62.7156 170.35C61.7354 170.35 60.8765 170.158 60.1389 169.772C59.412 169.376 58.8448 168.836 58.4375 168.154C58.0411 167.471 57.8428 166.695 57.8428 165.825C57.8428 164.944 58.0357 164.167 58.4211 163.496C58.8175 162.813 59.3571 162.279 60.0397 161.894C60.7333 161.508 61.5207 161.315 62.4017 161.315C63.2606 161.315 64.0257 161.503 64.6975 161.877C65.3693 162.252 65.8979 162.78 66.2833 163.463C66.6685 164.146 66.8614 164.949 66.8614 165.874C66.8614 165.962 66.8559 166.061 66.8447 166.171C66.8447 166.282 66.8393 166.386 66.8283 166.485H59.4781V165.115H65.738L64.9289 165.544C64.9398 165.037 64.8352 164.591 64.615 164.206C64.3948 163.82 64.0919 163.518 63.7064 163.298C63.3321 163.077 62.8972 162.967 62.4017 162.967C61.8952 162.967 61.4491 163.077 61.0636 163.298C60.6894 163.518 60.3922 163.826 60.172 164.223C59.9627 164.608 59.8581 165.065 59.8581 165.593V165.924C59.8581 166.452 59.9791 166.92 60.2214 167.328C60.4637 167.735 60.8049 168.049 61.2456 168.269C61.6859 168.489 62.1924 168.599 62.765 168.599C63.2606 168.599 63.7064 168.522 64.1031 168.368C64.4995 168.214 64.8516 167.972 65.16 167.641L66.2667 168.913C65.8703 169.376 65.3693 169.734 64.7636 169.987C64.1689 170.229 63.4862 170.35 62.7156 170.35ZM68.5143 170.235V157.979H70.579V170.235H68.5143ZM80.9256 170.35C80.078 170.35 79.3125 170.163 78.6298 169.789C77.9581 169.403 77.4294 168.875 77.0443 168.203C76.6588 167.531 76.4659 166.739 76.4659 165.825C76.4659 164.911 76.6588 164.118 77.0443 163.446C77.4294 162.774 77.9581 162.252 78.6298 161.877C79.3125 161.503 80.078 161.315 80.9256 161.315C81.6635 161.315 82.324 161.481 82.9079 161.811C83.4914 162.13 83.9539 162.62 84.2954 163.281C84.6366 163.942 84.8073 164.79 84.8073 165.825C84.8073 166.849 84.642 167.697 84.3117 168.368C83.9815 169.029 83.5244 169.524 82.9409 169.855C82.3571 170.185 81.6857 170.35 80.9256 170.35ZM81.1734 168.583C81.669 168.583 82.1093 168.473 82.4948 168.253C82.8912 168.032 83.2051 167.713 83.4365 167.295C83.6785 166.876 83.7998 166.386 83.7998 165.825C83.7998 165.252 83.6785 164.762 83.4365 164.354C83.2051 163.936 82.8912 163.617 82.4948 163.397C82.1093 163.176 81.669 163.066 81.1734 163.066C80.6779 163.066 80.232 163.176 79.8357 163.397C79.4502 163.617 79.1363 163.936 78.894 164.354C78.6629 164.762 78.5473 165.252 78.5473 165.825C78.5473 166.386 78.6629 166.876 78.894 167.295C79.1363 167.713 79.4502 168.032 79.8357 168.253C80.232 168.473 80.6779 168.583 81.1734 168.583ZM83.8492 170.235V168.154L83.9317 165.808L83.7667 163.463V157.979H85.8148V170.235H83.8492ZM92.3477 170.35C91.3678 170.35 90.5089 170.158 89.7711 169.772C89.0444 169.376 88.4773 168.836 88.0697 168.154C87.6733 167.471 87.4752 166.695 87.4752 165.825C87.4752 164.944 87.6678 164.167 88.0533 163.496C88.4497 162.813 88.9892 162.279 89.6719 161.894C90.3658 161.508 91.1531 161.315 92.0338 161.315C92.8927 161.315 93.6582 161.503 94.3299 161.877C95.0014 162.252 95.53 162.78 95.9155 163.463C96.3009 164.146 96.4935 164.949 96.4935 165.874C96.4935 165.962 96.4881 166.061 96.4772 166.171C96.4772 166.282 96.4717 166.386 96.4605 166.485H89.1105V165.115H95.3705L94.561 165.544C94.572 165.037 94.4673 164.591 94.2471 164.206C94.027 163.82 93.7243 163.518 93.3388 163.298C92.9643 163.077 92.5294 162.967 92.0338 162.967C91.5273 162.967 91.0815 163.077 90.6961 163.298C90.3215 163.518 90.0243 163.826 89.8041 164.223C89.5949 164.608 89.4902 165.065 89.4902 165.593V165.924C89.4902 166.452 89.6115 166.92 89.8536 167.328C90.0959 167.735 90.4374 168.049 90.8777 168.269C91.3181 168.489 91.8249 168.599 92.3975 168.599C92.8927 168.599 93.3388 168.522 93.7352 168.368C94.1316 168.214 94.484 167.972 94.7924 167.641L95.8991 168.913C95.5024 169.376 95.0014 169.734 94.3958 169.987C93.8013 170.229 93.1186 170.35 92.3477 170.35ZM100.944 170.235L106.147 158.673H108.261L113.48 170.235H111.234L106.758 159.812H107.617L103.157 170.235H100.944ZM103.339 167.559L103.917 165.874H110.16L110.739 167.559H103.339ZM125.555 161.315C126.26 161.315 126.882 161.453 127.422 161.728C127.972 162.004 128.401 162.427 128.71 163C129.018 163.562 129.172 164.289 129.172 165.181V170.235H127.108V165.445C127.108 164.663 126.937 164.079 126.595 163.694C126.254 163.308 125.764 163.116 125.125 163.116C124.674 163.116 124.272 163.215 123.92 163.413C123.578 163.611 123.309 163.903 123.11 164.289C122.923 164.674 122.83 165.164 122.83 165.759V170.235H120.765V165.445C120.765 164.663 120.594 164.079 120.253 163.694C119.911 163.308 119.422 163.116 118.783 163.116C118.331 163.116 117.93 163.215 117.577 163.413C117.236 163.611 116.966 163.903 116.768 164.289C116.581 164.674 116.487 165.164 116.487 165.759V170.235H114.422V161.415H116.388V163.76L116.041 163.066C116.338 162.494 116.768 162.059 117.329 161.761C117.902 161.464 118.552 161.315 119.279 161.315C120.104 161.315 120.82 161.519 121.426 161.926C122.042 162.334 122.45 162.951 122.648 163.776L121.839 163.496C122.125 162.835 122.599 162.306 123.259 161.91C123.92 161.514 124.685 161.315 125.555 161.315ZM131.48 170.235V161.415H133.545V170.235H131.48ZM132.521 159.961C132.135 159.961 131.816 159.84 131.563 159.598C131.321 159.356 131.2 159.063 131.2 158.722C131.2 158.37 131.321 158.078 131.563 157.847C131.816 157.605 132.135 157.483 132.521 157.483C132.906 157.483 133.22 157.599 133.462 157.83C133.716 158.051 133.842 158.331 133.842 158.673C133.842 159.036 133.721 159.344 133.479 159.598C133.237 159.84 132.917 159.961 132.521 159.961ZM139.922 173.555C139.107 173.555 138.308 173.445 137.527 173.224C136.756 173.015 136.123 172.707 135.627 172.299L136.552 170.747C136.938 171.066 137.422 171.319 138.006 171.507C138.6 171.705 139.2 171.804 139.806 171.804C140.775 171.804 141.485 171.578 141.937 171.127C142.388 170.686 142.614 170.02 142.614 169.128V167.559L142.779 165.56L142.713 163.562V161.415H144.678V168.897C144.678 170.493 144.271 171.666 143.456 172.415C142.641 173.175 141.463 173.555 139.922 173.555ZM139.657 169.838C138.821 169.838 138.061 169.662 137.378 169.31C136.706 168.946 136.172 168.445 135.776 167.807C135.391 167.168 135.198 166.419 135.198 165.56C135.198 164.712 135.391 163.969 135.776 163.331C136.172 162.692 136.706 162.196 137.378 161.844C138.061 161.492 138.821 161.315 139.657 161.315C140.406 161.315 141.078 161.464 141.672 161.761C142.267 162.059 142.741 162.521 143.093 163.149C143.456 163.776 143.638 164.58 143.638 165.56C143.638 166.541 143.456 167.35 143.093 167.988C142.741 168.616 142.267 169.084 141.672 169.392C141.078 169.69 140.406 169.838 139.657 169.838ZM139.971 168.088C140.489 168.088 140.951 167.983 141.359 167.774C141.766 167.553 142.08 167.256 142.3 166.882C142.531 166.496 142.647 166.056 142.647 165.56C142.647 165.065 142.531 164.63 142.3 164.256C142.08 163.87 141.766 163.578 141.359 163.38C140.951 163.171 140.489 163.066 139.971 163.066C139.454 163.066 138.986 163.171 138.567 163.38C138.16 163.578 137.84 163.87 137.609 164.256C137.389 164.63 137.279 165.065 137.279 165.56C137.279 166.056 137.389 166.496 137.609 166.882C137.84 167.256 138.16 167.553 138.567 167.774C138.986 167.983 139.454 168.088 139.971 168.088ZM151.027 170.35C150.124 170.35 149.32 170.158 148.615 169.772C147.91 169.376 147.354 168.836 146.947 168.154C146.54 167.471 146.336 166.695 146.336 165.825C146.336 164.944 146.54 164.167 146.947 163.496C147.354 162.813 147.91 162.279 148.615 161.894C149.32 161.508 150.124 161.315 151.027 161.315C151.941 161.315 152.75 161.508 153.455 161.894C154.17 162.279 154.727 162.807 155.123 163.479C155.53 164.151 155.734 164.933 155.734 165.825C155.734 166.695 155.53 167.471 155.123 168.154C154.727 168.836 154.17 169.376 153.455 169.772C152.75 170.158 151.941 170.35 151.027 170.35ZM151.027 168.583C151.533 168.583 151.985 168.473 152.381 168.253C152.777 168.032 153.086 167.713 153.306 167.295C153.538 166.876 153.653 166.386 153.653 165.825C153.653 165.252 153.538 164.762 153.306 164.354C153.086 163.936 152.777 163.617 152.381 163.397C151.985 163.176 151.539 163.066 151.043 163.066C150.537 163.066 150.085 163.176 149.689 163.397C149.303 163.617 148.995 163.936 148.764 164.354C148.533 164.762 148.417 165.252 148.417 165.825C148.417 166.386 148.533 166.876 148.764 167.295C148.995 167.713 149.303 168.032 149.689 168.253C150.085 168.473 150.531 168.583 151.027 168.583ZM160.104 170.35C159.366 170.35 158.655 170.257 157.973 170.069C157.301 169.871 156.767 169.635 156.37 169.359L157.164 167.79C157.56 168.044 158.033 168.253 158.584 168.418C159.135 168.583 159.685 168.666 160.236 168.666C160.885 168.666 161.353 168.578 161.64 168.401C161.937 168.225 162.085 167.988 162.085 167.691C162.085 167.449 161.987 167.267 161.788 167.146C161.59 167.014 161.331 166.915 161.012 166.849C160.692 166.783 160.335 166.722 159.938 166.667C159.553 166.612 159.162 166.541 158.765 166.452C158.38 166.353 158.028 166.215 157.709 166.04C157.389 165.852 157.13 165.604 156.932 165.296C156.734 164.988 156.635 164.58 156.635 164.074C156.635 163.512 156.794 163.028 157.114 162.62C157.433 162.202 157.879 161.882 158.452 161.662C159.035 161.431 159.723 161.315 160.516 161.315C161.111 161.315 161.711 161.381 162.317 161.514C162.922 161.646 163.423 161.833 163.82 162.075L163.027 163.645C162.609 163.391 162.185 163.221 161.755 163.132C161.337 163.033 160.918 162.984 160.5 162.984C159.872 162.984 159.404 163.077 159.096 163.264C158.798 163.452 158.65 163.688 158.65 163.975C158.65 164.239 158.749 164.437 158.947 164.569C159.145 164.701 159.404 164.806 159.723 164.883C160.043 164.96 160.395 165.026 160.781 165.081C161.177 165.125 161.568 165.197 161.954 165.296C162.339 165.395 162.691 165.533 163.01 165.709C163.341 165.874 163.605 166.111 163.803 166.419C164.002 166.728 164.101 167.129 164.101 167.625C164.101 168.175 163.935 168.655 163.605 169.062C163.286 169.47 162.829 169.789 162.234 170.02C161.64 170.24 160.929 170.35 160.104 170.35Z" fill="#04B3A7"/>
<path id="Vector_5" d="M16.3037 133.537V95.685H23.702C25.6233 95.685 27.1288 95.9716 28.2185 96.5451C29.3225 97.1186 30.1039 98.0364 30.5628 99.298C31.0217 100.545 31.2582 102.187 31.2725 104.223V105.191C31.2725 107.227 31.0502 108.897 30.6056 110.202C30.1612 111.507 29.3655 112.431 28.2185 112.976C29.1648 113.335 29.9032 113.952 30.4336 114.826C30.9786 115.701 31.3656 116.754 31.5952 117.988C31.8245 119.221 31.9391 120.561 31.9391 122.009V122.87C31.9106 125.364 31.6379 127.4 31.1218 128.977C30.6201 130.54 29.8028 131.695 28.6701 132.44C27.5374 133.171 26.0176 133.537 24.1107 133.537H16.3037ZM21.2933 129.58H23.745C24.5623 129.58 25.1932 129.386 25.6377 128.999C26.0965 128.612 26.4191 127.952 26.6055 127.02C26.8062 126.088 26.9065 124.798 26.9065 123.149V121.106C26.9065 118.984 26.7202 117.45 26.3474 116.504C25.9889 115.557 25.2219 115.084 24.0461 115.084H21.2933V129.58ZM21.2933 111.278H23.659C24.2182 111.278 24.6698 111.213 25.014 111.084C25.3724 110.941 25.6448 110.675 25.8312 110.288C26.0319 109.901 26.161 109.342 26.2183 108.61C26.29 107.865 26.3259 106.883 26.3259 105.664V104.094C26.3259 102.847 26.2255 101.908 26.0248 101.277C25.8241 100.646 25.5086 100.223 25.0785 100.008C24.6483 99.7926 24.082 99.6853 23.3794 99.6853H21.2933V111.278ZM35.8114 133.537V95.685H40.8224V133.537H35.8114ZM45.9848 133.537V95.685H50.9744V129.343H58.0932V133.537H45.9848ZM60.5889 133.537V95.685H65.5785V129.343H72.697V133.537H60.5889ZM89.044 133.967C87.094 133.967 85.4881 133.293 84.2265 131.945C82.9791 130.598 82.3555 128.59 82.3555 125.923C82.3555 124.232 82.6279 122.669 83.1726 121.235C83.7318 119.787 84.456 118.425 85.3449 117.149C86.2338 115.873 87.1728 114.64 88.1621 113.45C87.2732 111.17 86.5277 109.069 85.9254 107.148C85.3377 105.227 85.0438 103.75 85.0438 102.718C85.0438 100.28 85.6388 98.4236 86.8289 97.1474C88.0332 95.857 89.6318 95.2119 91.6249 95.2119C93.1159 95.2119 94.3275 95.5128 95.2594 96.1151C96.1914 96.7028 96.8726 97.556 97.3026 98.6745C97.7472 99.7926 97.9692 101.148 97.9692 102.739C97.9692 104.101 97.7327 105.435 97.2595 106.74C96.7864 108.03 96.1699 109.284 95.4102 110.503C94.6644 111.722 93.8616 112.89 93.0012 114.009L96.1414 121.665C96.6575 120.705 97.231 119.722 97.8619 118.719C98.4927 117.701 99.2096 116.697 100.012 115.708L102.077 119.192C101.217 120.224 100.464 121.343 99.8189 122.547C99.1739 123.737 98.5715 124.927 98.0123 126.117L101.346 133.537H96.851L95.324 130.246C94.8367 130.978 94.299 131.623 93.7109 132.182C93.1374 132.741 92.4708 133.178 91.7108 133.494C90.9511 133.809 90.0621 133.967 89.044 133.967ZM89.7968 129.687C90.313 129.687 90.7718 129.537 91.173 129.236C91.5746 128.934 91.9546 128.512 92.3131 127.967C92.6716 127.407 93.0516 126.748 93.4528 125.988L89.9044 117.557C89.3306 118.36 88.8148 119.178 88.3559 120.009C87.897 120.841 87.5313 121.68 87.2589 122.525C86.9866 123.371 86.8289 124.224 86.7858 125.085C86.7285 126.547 86.9293 127.68 87.3881 128.483C87.8612 129.286 88.664 129.687 89.7968 129.687ZM91.4099 109.836C92.2415 108.718 92.9224 107.55 93.4528 106.331C93.9978 105.112 94.2701 103.879 94.2701 102.632C94.2701 101.327 94.1197 100.381 93.8186 99.7926C93.5174 99.2049 92.9081 98.911 91.9904 98.911C91.4169 98.911 90.958 99.0329 90.6141 99.2765C90.2841 99.506 90.0406 99.8142 89.8829 100.201C89.7395 100.574 89.6463 100.976 89.6033 101.406C89.5745 101.836 89.5602 102.252 89.5602 102.653C89.5602 103.298 89.7252 104.273 90.0549 105.578C90.3991 106.868 90.8507 108.288 91.4099 109.836ZM113.026 133.537V95.685H120.424C122.346 95.685 123.851 95.9716 124.941 96.5451C126.045 97.1186 126.826 98.0364 127.285 99.298C127.744 100.545 127.98 102.187 127.994 104.223V105.191C127.994 107.227 127.772 108.897 127.328 110.202C126.884 111.507 126.088 112.431 124.941 112.976C125.887 113.335 126.625 113.952 127.156 114.826C127.701 115.701 128.088 116.754 128.317 117.988C128.547 119.221 128.661 120.561 128.661 122.009V122.87C128.633 125.364 128.36 127.4 127.844 128.977C127.342 130.54 126.525 131.695 125.392 132.44C124.26 133.171 122.74 133.537 120.833 133.537H113.026ZM118.015 129.58H120.467C121.284 129.58 121.915 129.386 122.36 128.999C122.819 128.612 123.141 127.952 123.328 127.02C123.528 126.088 123.629 124.798 123.629 123.149V121.106C123.629 118.984 123.442 117.45 123.069 116.504C122.711 115.557 121.944 115.084 120.768 115.084H118.015V129.58ZM118.015 111.278H120.381C120.94 111.278 121.392 111.213 121.736 111.084C122.094 110.941 122.367 110.675 122.553 110.288C122.754 109.901 122.883 109.342 122.941 108.61C123.012 107.865 123.048 106.883 123.048 105.664V104.094C123.048 102.847 122.948 101.908 122.747 101.277C122.546 100.646 122.231 100.223 121.801 100.008C121.371 99.7926 120.804 99.6853 120.102 99.6853H118.015V111.278ZM132.533 133.537V95.685H137.544V133.537H132.533ZM142.707 133.537V95.685H147.697V129.343H154.815V133.537H142.707ZM157.311 133.537V95.685H162.3V129.343H169.419V133.537H157.311Z" fill="#FBFDF7"/>
<path id="Vector_6" d="M73.784 63.8668C76.2166 63.8668 78.1886 61.8948 78.1886 59.4622C78.1886 57.0296 76.2166 55.0576 73.784 55.0576C71.3514 55.0576 69.3794 57.0296 69.3794 59.4622C69.3794 61.8948 71.3514 63.8668 73.784 63.8668Z" fill="#04B3A7"/>
</g>
</svg>
