<svg width="90" height="90" viewBox="0 0 90 90" fill="none" xmlns="http://www.w3.org/2000/svg">
<g clip-path="url(#clip0_52_53)">
<path d="M30.0318 22.6248L29.0444 20.5132L42.8884 13.4741C43.4241 13.2062 43.6919 13.2062 44.2276 13.4741L58.1047 20.5132L56.9484 22.6248L44.2276 16.1526C43.6919 15.8846 43.507 15.8846 42.9713 16.1526L30.0318 22.6248Z" fill="#04B3A7"/>
<path d="M32.4423 25.7951C31.8096 24.9378 30.7035 24.9378 30.0317 25.7951V41.866H32.4423V37.9596H54.9414V41.866H57.3521V35.4377H32.4423V25.7951Z" fill="#04B3A7"/>
<path d="M57.3523 34.2389H33.7817V31.9763C33.7817 31.9763 33.7918 31.8548 33.8713 31.7752C33.9216 31.7249 34.0724 31.7249 34.0724 31.7249H38.7481V28.0044L56.0131 29.5449C56.7977 29.6133 57.2502 30.1665 57.3523 30.8841V34.2389Z" fill="#04B3A7"/>
<path d="M14.1019 77.192H15.1465V82.8169H14.1019V77.192ZM11.193 82.8169H10.1484V77.192H11.193V82.8169ZM14.1822 80.4062H11.1047V79.5143H14.1822V80.4062ZM18.3251 82.8731C17.8857 82.8731 17.4947 82.7794 17.1518 82.5919C16.809 82.3991 16.5385 82.1366 16.3402 81.8045C16.1421 81.4724 16.0429 81.0946 16.0429 80.6715C16.0429 80.2429 16.1421 79.8652 16.3402 79.5384C16.5385 79.2063 16.809 78.9464 17.1518 78.7591C17.4947 78.5715 17.8857 78.4777 18.3251 78.4777C18.7696 78.4777 19.1634 78.5715 19.5063 78.7591C19.8545 78.9464 20.1249 79.2036 20.3178 79.5304C20.5161 79.8572 20.6151 80.2376 20.6151 80.6715C20.6151 81.0946 20.5161 81.4724 20.3178 81.8045C20.1249 82.1366 19.8545 82.3991 19.5063 82.5919C19.1634 82.7794 18.7696 82.8731 18.3251 82.8731ZM18.3251 82.0134C18.5715 82.0134 18.791 81.9598 18.9839 81.8527C19.1768 81.7454 19.3267 81.5901 19.4339 81.3866C19.5464 81.183 19.6026 80.9446 19.6026 80.6715C19.6026 80.3929 19.5464 80.1545 19.4339 79.9562C19.3267 79.7528 19.1768 79.5974 18.9839 79.4903C18.791 79.383 18.5741 79.3295 18.3331 79.3295C18.0867 79.3295 17.867 79.383 17.6741 79.4903C17.4866 79.5974 17.3367 79.7528 17.2241 79.9562C17.1117 80.1545 17.0555 80.3929 17.0555 80.6715C17.0555 80.9446 17.1117 81.183 17.2241 81.3866C17.3367 81.5901 17.4866 81.7454 17.6741 81.8527C17.867 81.9598 18.084 82.0134 18.3251 82.0134ZM22.7407 82.8731C22.3819 82.8731 22.0363 82.8277 21.7042 82.7365C21.3774 82.6401 21.1176 82.5249 20.9248 82.3909L21.3104 81.6277C21.5033 81.7509 21.7336 81.8527 22.0015 81.933C22.2693 82.0134 22.5372 82.0535 22.805 82.0535C23.1211 82.0535 23.3487 82.0107 23.488 81.925C23.6327 81.8393 23.705 81.7241 23.705 81.5795C23.705 81.4616 23.6568 81.3732 23.5603 81.3143C23.4639 81.25 23.3381 81.2018 23.1827 81.1696C23.0274 81.1374 22.8533 81.1081 22.6604 81.0812C22.4729 81.0545 22.2827 81.0197 22.0899 80.9768C21.9024 80.9285 21.7309 80.8615 21.5756 80.776C21.4202 80.6848 21.2943 80.5642 21.198 80.4143C21.1015 80.2643 21.0533 80.0661 21.0533 79.8197C21.0533 79.5465 21.131 79.3107 21.2864 79.1126C21.4417 78.909 21.6586 78.7536 21.9372 78.6465C22.2211 78.5341 22.556 78.4777 22.9416 78.4777C23.2308 78.4777 23.5228 78.5099 23.8174 78.5742C24.1121 78.6385 24.3558 78.7296 24.5487 78.8474L24.163 79.6108C23.9594 79.4875 23.7533 79.4046 23.5442 79.3616C23.3407 79.3134 23.1371 79.2893 22.9335 79.2893C22.6283 79.2893 22.4006 79.3349 22.2506 79.426C22.106 79.517 22.0337 79.6322 22.0337 79.7715C22.0337 79.9 22.0818 79.9965 22.1783 80.0607C22.2746 80.125 22.4006 80.1759 22.556 80.2134C22.7113 80.2509 22.8826 80.283 23.0701 80.3099C23.263 80.3313 23.4532 80.3661 23.6407 80.4143C23.8282 80.4626 23.9997 80.5294 24.155 80.6151C24.3157 80.6955 24.4442 80.8108 24.5407 80.9607C24.637 81.1107 24.6853 81.3062 24.6853 81.5473C24.6853 81.8151 24.605 82.0482 24.4442 82.2464C24.2888 82.4446 24.0666 82.5999 23.7773 82.7124C23.488 82.8195 23.1424 82.8731 22.7407 82.8731ZM27.0048 82.8731C26.5332 82.8731 26.169 82.7526 25.9119 82.5115C25.6548 82.2651 25.5263 81.9035 25.5263 81.4268V77.5779H26.5306V81.4027C26.5306 81.6062 26.5815 81.7642 26.6833 81.8768C26.7904 81.9892 26.9378 82.0455 27.1252 82.0455C27.3502 82.0455 27.5377 81.9865 27.6877 81.8686L27.969 82.5839C27.8511 82.6803 27.7065 82.7526 27.535 82.8008C27.3636 82.8491 27.1868 82.8731 27.0048 82.8731ZM24.8191 79.3616V78.5581H27.6796V79.3616H24.8191ZM30.5102 82.8731C30.0333 82.8731 29.6155 82.7794 29.2567 82.5919C28.903 82.3991 28.6271 82.1366 28.429 81.8045C28.2361 81.4724 28.1397 81.0946 28.1397 80.6715C28.1397 80.2429 28.2335 79.8652 28.421 79.5384C28.6139 79.2063 28.8763 78.9464 29.2084 78.7591C29.5459 78.5715 29.9289 78.4777 30.3575 78.4777C30.7753 78.4777 31.1476 78.5689 31.4744 78.751C31.8012 78.9332 32.0583 79.1902 32.2459 79.5223C32.4332 79.8546 32.5271 80.2455 32.5271 80.6955C32.5271 80.7383 32.5244 80.7866 32.519 80.8401C32.519 80.8937 32.5163 80.9446 32.511 80.9928H28.9352V80.326H31.9806L31.587 80.5349C31.5923 80.2885 31.5414 80.0714 31.4342 79.8839C31.3271 79.6964 31.1797 79.5492 30.9922 79.442C30.8101 79.3349 30.5986 79.2814 30.3575 79.2814C30.1111 79.2814 29.8941 79.3349 29.7065 79.442C29.5245 79.5492 29.3799 79.6992 29.2728 79.892C29.171 80.0796 29.1201 80.3018 29.1201 80.5589V80.7196C29.1201 80.9768 29.1789 81.2044 29.2968 81.4027C29.4147 81.6009 29.5807 81.7536 29.7951 81.8607C30.0093 81.9678 30.2557 82.0213 30.5342 82.0213C30.7753 82.0213 30.9922 81.9839 31.1852 81.9089C31.378 81.8338 31.5493 81.7161 31.6994 81.5553L32.2378 82.174C32.0449 82.399 31.8012 82.5732 31.5065 82.6963C31.2172 82.8142 30.8851 82.8731 30.5102 82.8731ZM33.3312 82.8169V76.8546H34.3356V82.8169H33.3312ZM39.3692 82.8731C38.9568 82.8731 38.5844 82.7821 38.2523 82.5999C37.9255 82.4125 37.6683 82.1553 37.4809 81.8285C37.2934 81.5017 37.1996 81.116 37.1996 80.6715C37.1996 80.2268 37.2934 79.8411 37.4809 79.5143C37.6683 79.1875 37.9255 78.9332 38.2523 78.751C38.5844 78.5689 38.9568 78.4777 39.3692 78.4777C39.7281 78.4777 40.0495 78.5581 40.3335 78.7188C40.6173 78.8742 40.8423 79.1126 41.0085 79.4339C41.1745 79.7554 41.2575 80.1679 41.2575 80.6715C41.2575 81.1696 41.1771 81.5821 41.0164 81.9089C40.8558 82.2303 40.6334 82.4713 40.3496 82.632C40.0655 82.7928 39.7389 82.8731 39.3692 82.8731ZM39.4897 82.0134C39.7308 82.0134 39.945 81.9598 40.1325 81.8527C40.3254 81.7454 40.4781 81.5901 40.5906 81.3866C40.7084 81.183 40.7674 80.9446 40.7674 80.6715C40.7674 80.3929 40.7084 80.1545 40.5906 79.9562C40.4781 79.7528 40.3254 79.5974 40.1325 79.4903C39.945 79.383 39.7308 79.3295 39.4897 79.3295C39.2486 79.3295 39.0317 79.383 38.8389 79.4903C38.6514 79.5974 38.4987 79.7528 38.3808 79.9562C38.2683 80.1545 38.2121 80.3929 38.2121 80.6715C38.2121 80.9446 38.2683 81.183 38.3808 81.3866C38.4987 81.5901 38.6514 81.7454 38.8389 81.8527C39.0317 81.9598 39.2486 82.0134 39.4897 82.0134ZM40.7914 82.8169V81.8045L40.8316 80.6634L40.7513 79.5223V76.8546H41.7477V82.8169H40.7914ZM44.9258 82.8731C44.4491 82.8731 44.0313 82.7794 43.6723 82.5919C43.3188 82.3991 43.0429 82.1366 42.8446 81.8045C42.6518 81.4724 42.5554 81.0946 42.5554 80.6715C42.5554 80.2429 42.6491 79.8652 42.8367 79.5384C43.0295 79.2063 43.292 78.9464 43.6241 78.7591C43.9617 78.5715 44.3447 78.4777 44.7731 78.4777C45.191 78.4777 45.5634 78.5689 45.8902 78.751C46.2168 78.9332 46.474 79.1902 46.6615 79.5223C46.849 79.8546 46.9427 80.2455 46.9427 80.6955C46.9427 80.7383 46.9401 80.7866 46.9348 80.8401C46.9348 80.8937 46.9321 80.9446 46.9266 80.9928H43.351V80.326H46.3964L46.0026 80.5349C46.0079 80.2885 45.957 80.0714 45.8499 79.8839C45.7428 79.6964 45.5955 79.5492 45.408 79.442C45.2258 79.3349 45.0142 79.2814 44.7731 79.2814C44.5267 79.2814 44.3099 79.3349 44.1223 79.442C43.9401 79.5492 43.7955 79.6992 43.6884 79.892C43.5866 80.0796 43.5357 80.3018 43.5357 80.5589V80.7196C43.5357 80.9768 43.5947 81.2044 43.7125 81.4027C43.8303 81.6009 43.9965 81.7536 44.2107 81.8607C44.4249 81.9678 44.6715 82.0213 44.95 82.0213C45.191 82.0213 45.408 81.9839 45.6008 81.9089C45.7937 81.8338 45.9651 81.7161 46.1152 81.5553L46.6535 82.174C46.4606 82.399 46.2168 82.5732 45.9222 82.6963C45.633 82.8142 45.3009 82.8731 44.9258 82.8731ZM49.1077 82.8169L51.639 77.192H52.6675L55.2066 82.8169H54.1138L51.9362 77.7465H52.3541L50.1845 82.8169H49.1077ZM50.2729 81.5151L50.5542 80.6955H53.5915L53.8727 81.5151H50.2729ZM61.0807 78.4777C61.4236 78.4777 61.7262 78.5447 61.9888 78.6787C62.2566 78.8126 62.4655 79.0187 62.6156 79.2974C62.7655 79.5705 62.8406 79.9242 62.8406 80.3581V82.8169H61.8361V80.4866C61.8361 80.1063 61.753 79.8224 61.5869 79.6349C61.4209 79.4473 61.1825 79.3537 60.8718 79.3537C60.6522 79.3537 60.4566 79.4019 60.2853 79.4982C60.1192 79.5947 59.9879 79.7367 59.8915 79.9242C59.8005 80.1116 59.7549 80.35 59.7549 80.6393V82.8169H58.7504V80.4866C58.7504 80.1063 58.6674 79.8224 58.5014 79.6349C58.3352 79.4473 58.097 79.3537 57.7862 79.3537C57.5666 79.3537 57.3711 79.4019 57.1996 79.4982C57.0336 79.5947 56.9023 79.7367 56.8058 79.9242C56.7148 80.1116 56.6694 80.35 56.6694 80.6393V82.8169H55.6649V78.526H56.6211V79.667L56.4523 79.3295C56.5969 79.0509 56.8058 78.8393 57.0791 78.6947C57.3576 78.5502 57.6737 78.4777 58.0273 78.4777C58.4291 78.4777 58.7773 78.5769 59.0719 78.775C59.3719 78.9733 59.57 79.2732 59.6665 79.675L59.2727 79.5384C59.412 79.217 59.6425 78.9599 59.9638 78.767C60.2853 78.5742 60.6575 78.4777 61.0807 78.4777ZM63.9633 82.8169V78.526H64.9678V82.8169H63.9633ZM64.4696 77.8188C64.282 77.8188 64.1267 77.7599 64.0035 77.642C63.8856 77.5243 63.8267 77.3822 63.8267 77.2162C63.8267 77.0448 63.8856 76.9029 64.0035 76.7903C64.1267 76.6725 64.282 76.6135 64.4696 76.6135C64.6571 76.6135 64.8096 76.6697 64.9275 76.7823C65.0507 76.8894 65.1124 77.0261 65.1124 77.192C65.1124 77.3689 65.0534 77.5188 64.9356 77.642C64.8178 77.7599 64.6624 77.8188 64.4696 77.8188ZM68.0699 84.432C67.6736 84.432 67.2851 84.3785 66.9047 84.2713C66.5298 84.1695 66.2218 84.0195 65.9807 83.8213L66.4307 83.0659C66.6182 83.2213 66.8538 83.3445 67.1378 83.4357C67.427 83.532 67.719 83.5803 68.0136 83.5803C68.485 83.5803 68.8306 83.4705 69.0503 83.2508C69.2698 83.0366 69.3797 82.7124 69.3797 82.2785V81.5151L69.46 80.5428L69.4278 79.5705V78.526H70.384V82.1661C70.384 82.9427 70.1859 83.5133 69.7894 83.8776C69.393 84.2471 68.8198 84.432 68.0699 84.432ZM67.9413 82.6241C67.5343 82.6241 67.1645 82.5383 66.8324 82.3669C66.5056 82.1901 66.2458 81.9464 66.053 81.6357C65.8656 81.325 65.7718 80.9607 65.7718 80.5428C65.7718 80.1303 65.8656 79.7688 66.053 79.4581C66.2458 79.1474 66.5056 78.9063 66.8324 78.7349C67.1645 78.5634 67.5343 78.4777 67.9413 78.4777C68.3056 78.4777 68.6324 78.5502 68.9216 78.6947C69.2109 78.8393 69.4412 79.0643 69.6127 79.3697C69.7894 79.675 69.8778 80.0661 69.8778 80.5428C69.8778 81.0197 69.7894 81.4133 69.6127 81.7241C69.4412 82.0295 69.2109 82.2571 68.9216 82.407C68.6324 82.5518 68.3056 82.6241 67.9413 82.6241ZM68.0941 81.7723C68.3458 81.7723 68.5708 81.7214 68.769 81.6196C68.9672 81.5125 69.1199 81.3679 69.227 81.1857C69.3394 80.9982 69.3958 80.7839 69.3958 80.5428C69.3958 80.3018 69.3394 80.0902 69.227 79.9081C69.1199 79.7206 68.9672 79.5787 68.769 79.4822C68.5708 79.3804 68.3458 79.3295 68.0941 79.3295C67.8422 79.3295 67.6145 79.3804 67.4109 79.4822C67.2128 79.5787 67.0574 79.7206 66.945 79.9081C66.8377 80.0902 66.7842 80.3018 66.7842 80.5428C66.7842 80.7839 66.8377 80.9982 66.945 81.1857C67.0574 81.3679 67.2128 81.5125 67.4109 81.6196C67.6145 81.7214 67.8422 81.7723 68.0941 81.7723ZM73.4724 82.8731C73.0331 82.8731 72.642 82.7794 72.2993 82.5919C71.9564 82.3991 71.6858 82.1366 71.4876 81.8045C71.2895 81.4724 71.1903 81.0946 71.1903 80.6715C71.1903 80.2429 71.2895 79.8652 71.4876 79.5384C71.6858 79.2063 71.9564 78.9464 72.2993 78.7591C72.642 78.5715 73.0331 78.4777 73.4724 78.4777C73.917 78.4777 74.3107 78.5715 74.6536 78.7591C75.0018 78.9464 75.2724 79.2036 75.4652 79.5304C75.6633 79.8572 75.7625 80.2376 75.7625 80.6715C75.7625 81.0946 75.6633 81.4724 75.4652 81.8045C75.2724 82.1366 75.0018 82.3991 74.6536 82.5919C74.3107 82.7794 73.917 82.8731 73.4724 82.8731ZM73.4724 82.0134C73.7188 82.0134 73.9384 81.9598 74.1313 81.8527C74.3241 81.7454 74.4742 81.5901 74.5813 81.3866C74.6939 81.183 74.7501 80.9446 74.7501 80.6715C74.7501 80.3929 74.6939 80.1545 74.5813 79.9562C74.4742 79.7528 74.3241 79.5974 74.1313 79.4903C73.9384 79.383 73.7216 79.3295 73.4805 79.3295C73.2341 79.3295 73.0144 79.383 72.8216 79.4903C72.634 79.5974 72.484 79.7528 72.3716 79.9562C72.259 80.1545 72.2028 80.3929 72.2028 80.6715C72.2028 80.9446 72.259 81.183 72.3716 81.3866C72.484 81.5901 72.634 81.7454 72.8216 81.8527C73.0144 81.9598 73.2313 82.0134 73.4724 82.0134ZM77.8881 82.8731C77.5291 82.8731 77.1836 82.8277 76.8515 82.7365C76.5248 82.6401 76.265 82.5249 76.072 82.3909L76.4579 81.6277C76.6507 81.7509 76.881 81.8527 77.1488 81.933C77.4167 82.0134 77.6845 82.0535 77.9524 82.0535C78.2685 82.0535 78.4961 82.0107 78.6354 81.925C78.78 81.8393 78.8523 81.7241 78.8523 81.5795C78.8523 81.4616 78.8042 81.3732 78.7077 81.3143C78.6114 81.25 78.4854 81.2018 78.33 81.1696C78.1746 81.1374 78.0005 81.1081 77.8077 81.0812C77.6203 81.0545 77.4301 81.0197 77.2372 80.9768C77.0498 80.9285 76.8783 80.8615 76.723 80.776C76.5676 80.6848 76.4418 80.5642 76.3453 80.4143C76.2489 80.2643 76.2007 80.0661 76.2007 79.8197C76.2007 79.5465 76.2783 79.3107 76.4337 79.1126C76.589 78.909 76.806 78.7536 77.0846 78.6465C77.3685 78.5341 77.7032 78.4777 78.0889 78.4777C78.3782 78.4777 78.6702 78.5099 78.9649 78.5742C79.2595 78.6385 79.5032 78.7296 79.6961 78.8474L79.3104 79.6108C79.1068 79.4875 78.9005 79.4046 78.6916 79.3616C78.488 79.3134 78.2846 79.2893 78.0809 79.2893C77.7755 79.2893 77.5479 79.3349 77.398 79.426C77.2532 79.517 77.181 79.6322 77.181 79.7715C77.181 79.9 77.2292 79.9965 77.3257 80.0607C77.422 80.125 77.5479 80.1759 77.7032 80.2134C77.8586 80.2509 78.03 80.283 78.2176 80.3099C78.4104 80.3313 78.6006 80.3661 78.7881 80.4143C78.9755 80.4626 79.1469 80.5294 79.3023 80.6151C79.4631 80.6955 79.5916 80.8108 79.688 80.9607C79.7845 81.1107 79.8327 81.3062 79.8327 81.5473C79.8327 81.8151 79.7523 82.0482 79.5916 82.2464C79.4363 82.4446 79.2139 82.5999 78.9247 82.7124C78.6354 82.8195 78.2899 82.8731 77.8881 82.8731Z" fill="#121417"/>
<path d="M7.93164 64.9639V46.5495H11.5308C12.4655 46.5495 13.1979 46.6889 13.728 46.9679C14.2651 47.2469 14.6452 47.6934 14.8685 48.3072C15.0917 48.914 15.2068 49.7128 15.2137 50.7032V51.174C15.2137 52.1645 15.1056 52.9771 14.8893 53.6118C14.6731 54.2466 14.286 54.6964 13.728 54.9616C14.1884 55.1359 14.5476 55.4359 14.8056 55.8614C15.0708 56.2868 15.259 56.7995 15.3707 57.3994C15.4823 57.9993 15.538 58.6514 15.538 59.3559V59.7745C15.5242 60.9882 15.3915 61.9786 15.1404 62.7458C14.8964 63.5061 14.4988 64.0676 13.9477 64.4303C13.3967 64.786 12.6573 64.9639 11.7296 64.9639H7.93164ZM10.359 63.0388H11.5518C11.9493 63.0388 12.2562 62.9447 12.4725 62.7563C12.6957 62.568 12.8526 62.2471 12.9433 61.7937C13.041 61.3403 13.0898 60.7125 13.0898 59.9104V58.9165C13.0898 57.8842 12.9991 57.1378 12.8178 56.6775C12.6434 56.2171 12.2702 55.987 11.6982 55.987H10.359V63.0388ZM10.359 54.135H11.5099C11.7819 54.135 12.0016 54.1036 12.1691 54.0407C12.3434 53.9711 12.476 53.842 12.5666 53.6538C12.6643 53.4653 12.7271 53.1933 12.755 52.8376C12.7898 52.4749 12.8073 51.9972 12.8073 51.4042V50.6404C12.8073 50.0335 12.7585 49.5767 12.6608 49.2699C12.5632 48.9628 12.4097 48.7572 12.2004 48.6526C11.9912 48.5478 11.7157 48.4956 11.3739 48.4956H10.359V54.135ZM17.4218 64.9639V46.5495H19.8597V64.9639H17.4218ZM22.3711 64.9639V46.5495H24.7985V62.9237H28.2617V64.9639H22.3711ZM29.4758 64.9639V46.5495H31.9031V62.9237H35.3662V64.9639H29.4758ZM43.3188 65.1732C42.3701 65.1732 41.5889 64.8453 40.9751 64.1896C40.3683 63.534 40.065 62.5576 40.065 61.2601C40.065 60.4371 40.1975 59.6768 40.4624 58.9792C40.7345 58.2747 41.0868 57.6121 41.5193 56.9913C41.9517 56.3706 42.4085 55.7707 42.8898 55.1917C42.4573 54.0826 42.0947 53.0608 41.8017 52.1261C41.5157 51.1914 41.3728 50.4731 41.3728 49.9708C41.3728 48.785 41.6622 47.8818 42.2412 47.2609C42.8271 46.6332 43.6048 46.3193 44.5744 46.3193C45.2997 46.3193 45.8891 46.4657 46.3425 46.7587C46.7959 47.0447 47.1273 47.4597 47.3365 48.0038C47.5528 48.5478 47.6608 49.207 47.6608 49.9813C47.6608 50.6439 47.5457 51.2926 47.3156 51.9274C47.0854 52.5552 46.7855 53.1654 46.4159 53.7584C46.0531 54.3512 45.6625 54.9196 45.2439 55.4638L46.7716 59.1885C47.0227 58.7212 47.3017 58.2433 47.6086 57.7551C47.9155 57.2598 48.2643 56.7716 48.6548 56.2903L49.6593 57.9853C49.2407 58.4875 48.8745 59.0316 48.5607 59.6175C48.2468 60.1965 47.9538 60.7754 47.6818 61.3544L49.3035 64.9639H47.1168L46.374 63.3631C46.1369 63.7188 45.8753 64.0328 45.5892 64.3047C45.3102 64.5768 44.9859 64.7896 44.6162 64.943C44.2466 65.0964 43.8141 65.1732 43.3188 65.1732ZM43.685 63.0911C43.9361 63.0911 44.1594 63.0179 44.3546 62.8714C44.5499 62.7249 44.7348 62.5192 44.9092 62.2541C45.0836 61.982 45.2684 61.6612 45.4636 61.2915L43.7374 57.1902C43.4583 57.5807 43.2073 57.9783 42.9841 58.3829C42.7608 58.7874 42.5829 59.1955 42.4504 59.607C42.3179 60.0185 42.2412 60.4335 42.2202 60.8521C42.1924 61.5636 42.29 62.1146 42.5133 62.5052C42.7434 62.8959 43.134 63.0911 43.685 63.0911ZM44.4698 53.4339C44.8744 52.8899 45.2056 52.3215 45.4636 51.7285C45.7288 51.1357 45.8613 50.5358 45.8613 49.9289C45.8613 49.2942 45.7881 48.8339 45.6416 48.5478C45.4951 48.2619 45.1987 48.1189 44.7522 48.1189C44.4732 48.1189 44.25 48.1782 44.0827 48.2967C43.9221 48.4084 43.8036 48.5583 43.7269 48.7467C43.6571 48.928 43.6118 49.1234 43.5909 49.3326C43.5769 49.5418 43.5699 49.7441 43.5699 49.9394C43.5699 50.2532 43.6502 50.7276 43.8106 51.3623C43.978 51.9901 44.1977 52.6807 44.4698 53.4339ZM54.9856 64.9639V46.5495H58.5849C59.5196 46.5495 60.252 46.6889 60.7821 46.9679C61.3191 47.2469 61.6992 47.6934 61.9224 48.3072C62.1456 48.914 62.2607 49.7128 62.2677 50.7032V51.174C62.2677 52.1645 62.1597 52.9771 61.9434 53.6118C61.7272 54.2466 61.3401 54.6964 60.7821 54.9616C61.2424 55.1359 61.6017 55.4359 61.8597 55.8614C62.1247 56.2868 62.3131 56.7995 62.4246 57.3994C62.5363 57.9993 62.5921 58.6514 62.5921 59.3559V59.7745C62.5781 60.9882 62.4456 61.9786 62.1945 62.7458C61.9503 63.5061 61.5528 64.0676 61.0018 64.4303C60.4507 64.786 59.7114 64.9639 58.7836 64.9639H54.9856ZM57.413 63.0388H58.6057C59.0033 63.0388 59.3102 62.9447 59.5265 62.7563C59.7497 62.568 59.9066 62.2471 59.9973 61.7937C60.095 61.3403 60.1438 60.7125 60.1438 59.9104V58.9165C60.1438 57.8842 60.0531 57.1378 59.8718 56.6775C59.6974 56.2171 59.3242 55.987 58.7522 55.987H57.413V63.0388ZM57.413 54.135H58.5639C58.836 54.135 59.0557 54.1036 59.223 54.0407C59.3974 53.9711 59.53 53.842 59.6206 53.6538C59.7183 53.4653 59.781 53.1933 59.809 52.8376C59.8439 52.4749 59.8613 51.9972 59.8613 51.4042V50.6404C59.8613 50.0335 59.8124 49.5767 59.7148 49.2699C59.6172 48.9628 59.4636 48.7572 59.2544 48.6526C59.0452 48.5478 58.7696 48.4956 58.4279 48.4956H57.413V54.135ZM64.4758 64.9639V46.5495H66.9136V64.9639H64.4758ZM69.4252 64.9639V46.5495H71.8525V62.9237H75.3156V64.9639H69.4252ZM76.5297 64.9639V46.5495H78.9571V62.9237H82.4203V64.9639H76.5297Z" fill="#121417"/>
<path d="M35.8947 31.0702C37.0782 31.0702 38.0375 30.1109 38.0375 28.9274C38.0375 27.744 37.0782 26.7847 35.8947 26.7847C34.7113 26.7847 33.752 27.744 33.752 28.9274C33.752 30.1109 34.7113 31.0702 35.8947 31.0702Z" fill="#04B3A7"/>
</g>
<defs>
<clipPath id="clip0_52_53">
<rect width="90" height="90" fill="white"/>
</clipPath>
</defs>
</svg>
