<svg xmlns="http://www.w3.org/2000/svg" height="48" viewBox="0 -960 960 960" width="48"><path d="M270.264-142.771q-10.086 0-17.366-5.217-7.281-5.217-7.281-14.321v-80.208q-26.692-9.906-44.769-40.273-18.077-30.367-18.077-66.441v-382.538q0-65.795 70.703-95.32 70.703-29.525 227.129-29.525 155.819 0 226.223 29.646 70.403 29.646 70.403 95.199v382.194q0 36.418-18.077 66.785-18.077 30.367-44.769 40.332v80.446q0 8.617-7.333 13.929-7.332 5.312-16.974 5.312h-7.429q-11.086 0-18.366-5.217Q657-153.205 657-162.309v-61.462H303v61.462q0 9.104-7.333 14.321-7.332 5.217-17.974 5.217h-7.429ZM480.54-749.922H735.231 223.769 480.54ZM652.075-473H226.616h506.768-81.309Zm-425.459-43.845h506.768v-189.232H226.616v189.232Zm103.968 193.921q20.013 0 33.868-13.909 13.855-13.91 13.855-33.923t-13.909-34.129Q350.489-419 330.475-419q-20.013 0-34.128 14.17-14.116 14.169-14.116 34.183 0 20.013 14.17 33.868t34.183 13.855Zm298.941 0q20.013 0 34.128-13.909 14.116-13.91 14.116-33.923t-14.17-34.129Q649.429-419 629.416-419q-20.013 0-33.868 14.17-13.855 14.169-13.855 34.183 0 20.013 13.909 33.868t33.923 13.855ZM223.769-749.922h511.462q-19.692-30.924-85.058-46.885-65.365-15.962-169.633-15.962-119.74 0-181.736 14.942-61.996 14.943-75.035 47.905Zm84.156 482.306h344.15q34.425 0 57.867-25.93t23.442-60.008V-473H226.616v119.125q0 33.99 23.442 60.125 23.442 26.134 57.867 26.134Z"/></svg>