<svg xmlns="http://www.w3.org/2000/svg" height="48" viewBox="0 -960 960 960" width="48"><path d="M195.692-225.001v60.462q0 9.753-6.31 15.761-6.309 6.007-15.766 6.007h-8.675q-9.58 0-15.875-6.007-6.295-6.008-6.295-15.761v-307.73l81.999-243.192q3.61-9.88 12.259-15.824 8.648-5.944 19.895-5.944h447.691q11.243 0 19.144 5.761 7.902 5.761 11.471 16.007l81.999 243.192v307.73q0 9.753-6.309 15.761-6.31 6.007-15.767 6.007h-9.289q-9.995 0-15.775-6.007-5.781-6.008-5.781-15.761v-60.462H195.692Zm7.923-290.998h552.77l-60.308-177.385H263.923l-60.308 177.385Zm-16.999 43.845v203.308-203.308Zm102 149.538q20.307 0 33.922-13.861 13.616-13.86 13.616-33.557 0-21.03-13.861-34.844t-33.433-13.814q-20.906 0-34.844 13.741-13.938 13.741-13.938 34.673 0 20.432 13.865 34.047 13.865 13.615 34.673 13.615Zm383.411 0q20.792 0 34.652-13.861 13.859-13.86 13.859-33.557 0-21.03-13.786-34.844t-34.481-13.814q-20.194 0-34.002 13.741-13.807 13.741-13.807 34.673 0 20.432 14.053 34.047 14.053 13.615 33.512 13.615Zm-485.411 53.77h586.768v-203.308H186.616v203.308Z"/></svg>