<svg xmlns="http://www.w3.org/2000/svg" height="48" viewBox="0 -960 960 960" width="48"><path d="M241.495-240.156q-39.956 0-67.359-27.619-27.404-27.618-27.404-67.073H68.579v-351.536q0-21.101 15.026-36.127 15.026-15.026 36.126-15.026h549.86l222.523 215.691v186.998h-71.692q0 39.455-27.869 67.073-27.869 27.619-67.367 27.619-39.955 0-67.359-27.619-27.403-27.618-27.403-67.073H336.731q0 39.808-27.87 67.25-27.869 27.442-67.366 27.442Zm342.466-307.382h214.924L647.807-693.692h-63.846v146.154Zm-235.769 0h191.923v-146.154H348.192v146.154Zm-235.768 0h191.923v-146.154H112.424v146.154Zm128.889 269.69q23.765 0 40.591-16.267 16.827-16.267 16.827-40.519t-16.55-40.733q-16.55-16.481-40.519-16.481-23.969 0-40.45 16.268-16.48 16.267-16.48 40.519t16.408 40.732q16.409 16.481 40.173 16.481Zm483.692 0q23.764 0 40.591-16.267t16.827-40.519q0-24.252-16.55-40.733-16.55-16.481-40.519-16.481-23.97 0-40.45 16.268-16.481 16.267-16.481 40.519t16.409 40.732q16.408 16.481 40.173 16.481ZM112.424-378.693h44.02q11.788-24.077 35.701-37.615 23.914-13.539 49.24-13.539t48.663 12.962q23.337 12.961 37.529 38.192h312.678q11.789-23.692 35.652-37.423 23.863-13.731 49.217-13.731t48.653 13.154q23.299 13.154 37.492 38h37v-125H112.424v125Zm735.845-125H112.424h735.845Z"/></svg>