<svg xmlns="http://www.w3.org/2000/svg" height="48" viewBox="0 -960 960 960" width="48"><path d="M182.771-348.654v-370.115q0-36.867 18.01-63.253 18.009-26.385 55.057-42.777t92.951-24.258q55.904-7.865 131.211-7.865 75.9 0 131.763 7.37t92.684 23.673q36.821 16.303 54.802 42.531 17.98 26.228 17.98 64.579v370.115q0 53.058-36.566 89.625-36.566 36.566-89.587 36.566l59.693 59.692v19.385h-47.576l-79.077-79.077h-207.54l-79.077 79.077h-48.268v-19.385l59.693-59.692q-53.021 0-89.587-36.566-36.566-36.567-36.566-89.625ZM480-813.077q-121.116 0-176.423 16.116-55.308 16.115-72.192 49.577h498.461Q715.423-778.923 656.308-796 597.193-813.077 480-813.077ZM226.616-527.691h234.461v-175.848H226.616v175.848Zm424.46 43.845h-424.46 506.768H651.076Zm-146.154-43.845h228.462v-175.848H504.922v175.848ZM337.009-325.77q19.76 0 33.722-13.624 13.961-13.624 13.961-33.769 0-20.145-13.817-34.106-13.816-13.962-33.576-13.962-20.145 0-34.106 13.817-13.962 13.817-13.962 33.961 0 20.145 13.817 33.914 13.816 13.769 33.961 13.769Zm286.077 0q19.76 0 33.721-13.624 13.962-13.624 13.962-33.769 0-20.145-13.817-34.106-13.816-13.962-33.576-13.962-20.145 0-34.107 13.817-13.961 13.817-13.961 33.961 0 20.145 13.817 33.914 13.816 13.769 33.961 13.769Zm-314.162 62.923h342.152q34.77 0 58.539-25.192t23.769-60.577v-135.23H226.616v134.905q0 35.71 23.769 60.902t58.539 25.192ZM480-747.384h249.846-498.461H480Z"/></svg>