<svg width="160" height="160" viewBox="0 0 160 160" fill="none" xmlns="http://www.w3.org/2000/svg">
<g clip-path="url(#clip0_236_843)">
<path d="M157.373 12.9574C157.111 7.36501 152.636 2.88989 147.044 2.62846L91.1214 0.0125993C88.0732 -0.134926 85.1026 1.0187 82.944 3.17789L3.17722 82.9452C1.14332 84.9796 0 87.7382 0 90.6154C0 93.4927 1.14278 96.2518 3.17722 98.2862L61.715 156.823C63.8324 158.941 66.6088 160 69.3852 160C72.1611 160 74.9375 158.941 77.056 156.823L156.822 77.0572C158.981 74.8986 160.131 71.9296 159.988 68.8799L157.373 12.9574ZM136.939 41.2676C131.912 46.2949 123.76 46.2949 118.733 41.2676C113.706 36.2404 113.706 28.0891 118.733 23.0618C123.76 18.0346 131.912 18.0346 136.939 23.0618C141.966 28.0891 141.967 36.2398 136.939 41.2676Z" fill="#287784"/>
<g clip-path="url(#clip1_236_843)">
<path d="M66.903 72.922C66.8321 72.5669 66.6661 72.2378 66.4228 71.9696C66.1795 71.7014 65.868 71.5044 65.5214 71.3994C65.1749 71.2944 64.8064 71.2855 64.4551 71.3736C64.1039 71.4617 63.7832 71.6435 63.5272 71.8995L40.8998 94.5269C40.6441 94.7829 40.4627 95.1034 40.3747 95.4543C40.2868 95.8052 40.2957 96.1734 40.4005 96.5197C40.5053 96.8659 40.702 97.1773 40.9697 97.4206C41.2375 97.6639 41.5662 97.83 41.9209 97.9013L69.6126 103.441L74.8409 108.669L70.5983 112.912L73.4267 115.74L84.7404 104.426L81.912 101.598L77.6694 105.841L72.441 100.612L66.903 72.922ZM68.0485 99.0482L55.7986 96.5988L65.5991 86.7983L68.0485 99.0482ZM63.7139 77.3697L64.6572 82.0833L51.0836 95.6569L46.37 94.7136L63.7139 77.3697Z" fill="#FBFDF7"/>
</g>
</g>
<defs>
<clipPath id="clip0_236_843">
<rect width="160" height="160" fill="white"/>
</clipPath>
<clipPath id="clip1_236_843">
<rect width="48" height="48" fill="white" transform="translate(31 95.9412) rotate(-45)"/>
</clipPath>
</defs>
</svg>
