<svg width="160" height="160" viewBox="0 0 160 160" fill="none" xmlns="http://www.w3.org/2000/svg">
<g clip-path="url(#clip0_346_754)">
<path d="M157.373 12.9574C157.111 7.36501 152.636 2.88989 147.044 2.62846L91.1214 0.0125993C88.0732 -0.134926 85.1026 1.0187 82.944 3.17789L3.17722 82.9452C1.14332 84.9796 0 87.7382 0 90.6154C0 93.4927 1.14278 96.2518 3.17722 98.2862L61.715 156.823C63.8324 158.941 66.6088 160 69.3852 160C72.1611 160 74.9375 158.941 77.056 156.823L156.822 77.0572C158.981 74.8986 160.131 71.9296 159.988 68.8799L157.373 12.9574ZM136.939 41.2676C131.912 46.2949 123.76 46.2949 118.733 41.2676C113.706 36.2404 113.706 28.0891 118.733 23.0618C123.76 18.0346 131.912 18.0346 136.939 23.0618C141.966 28.0891 141.967 36.2398 136.939 41.2676Z" fill="#D3A259"/>
<g clip-path="url(#clip1_346_754)">
<path d="M42.3848 95.6986C40.8846 94.1983 40.0417 92.1635 40.0417 90.0418C40.0417 87.9201 40.8846 85.8852 42.3848 84.3849C43.8851 82.8846 45.92 82.0418 48.0417 82.0418C50.1634 82.0418 52.1983 82.8846 53.6986 84.3849L61.1302 91.8166C64.0641 91.2914 67.0891 91.7162 69.7648 93.0292C72.4405 94.3422 74.6274 96.4748 76.0071 99.1168C77.3868 101.759 77.8874 104.772 77.4359 107.718C76.9844 110.664 75.6045 113.389 73.4969 115.497C71.3894 117.605 68.6642 118.984 65.7181 119.436C62.772 119.887 59.7586 119.387 57.1167 118.007C54.4747 116.627 52.3421 114.441 51.0291 111.765C49.7161 109.089 49.2913 106.064 49.8165 103.13L42.3848 95.6986ZM53.7537 103.832C53.3779 105.928 53.6808 108.089 54.6184 110C55.556 111.912 57.0792 113.474 58.9664 114.46C60.8536 115.446 63.0061 115.804 65.1108 115.482C67.2154 115.159 69.1622 114.173 70.6678 112.668C72.1733 111.162 73.1591 109.216 73.4814 107.111C73.8038 105.006 73.446 102.854 72.4601 100.966C71.4742 99.0793 69.9117 97.556 68.0001 96.6185C66.0884 95.6809 63.9275 95.378 61.8317 95.7538L59.7768 96.1201L50.8701 87.2134C50.12 86.4632 49.1026 86.0418 48.0417 86.0418C46.9808 86.0418 45.9634 86.4632 45.2133 87.2134C44.4631 87.9635 44.0417 88.9809 44.0417 90.0418C44.0417 91.1026 44.4631 92.1201 45.2133 92.8702L54.12 101.777L53.7537 103.832ZM56.7052 101.534L46.6275 91.456L49.4559 88.6276L59.5336 98.7053C61.2112 97.7227 63.189 97.3843 65.0978 97.7533C67.0066 98.1223 68.7158 99.1734 69.9064 100.71C71.0969 102.247 71.6874 104.165 71.5675 106.105C71.4476 108.046 70.6256 109.876 69.2549 111.255C67.8784 112.634 66.046 113.464 64.1014 113.588C62.1568 113.711 60.2338 113.121 58.6934 111.928C57.153 110.735 56.101 109.021 55.7349 107.107C55.3688 105.193 55.7138 103.211 56.7052 101.534ZM66.4265 108.427C67.1766 107.676 67.598 106.659 67.598 105.598C67.598 104.537 67.1766 103.52 66.4265 102.77C65.6763 102.02 64.6589 101.598 63.598 101.598C62.5372 101.598 61.5198 102.02 60.7696 102.77C60.0195 103.52 59.5981 104.537 59.5981 105.598C59.598 106.659 60.0195 107.676 60.7696 108.427C61.5198 109.177 62.5372 109.598 63.598 109.598C64.6589 109.598 65.6763 109.177 66.4265 108.427Z" fill="#FBFDF7"/>
</g>
</g>
<defs>
<clipPath id="clip0_346_754">
<rect width="160" height="160" fill="white"/>
</clipPath>
<clipPath id="clip1_346_754">
<rect width="48" height="48" fill="white" transform="translate(24 99.9412) rotate(-45)"/>
</clipPath>
</defs>
</svg>
