<svg width="160" height="160" viewBox="0 0 160 160" fill="none" xmlns="http://www.w3.org/2000/svg">
<g clip-path="url(#clip0_236_825)">
<path d="M157.373 12.9574C157.111 7.36501 152.636 2.88989 147.044 2.62846L91.1214 0.0125993C88.0732 -0.134926 85.1026 1.0187 82.944 3.17789L3.17722 82.9452C1.14332 84.9796 0 87.7382 0 90.6154C0 93.4927 1.14278 96.2518 3.17722 98.2862L61.715 156.823C63.8324 158.941 66.6088 160 69.3852 160C72.1611 160 74.9375 158.941 77.056 156.823L156.822 77.0572C158.981 74.8986 160.131 71.9296 159.988 68.8799L157.373 12.9574ZM136.939 41.2676C131.912 46.2949 123.76 46.2949 118.733 41.2676C113.706 36.2404 113.706 28.0891 118.733 23.0618C123.76 18.0346 131.912 18.0346 136.939 23.0618C141.966 28.0891 141.967 36.2398 136.939 41.2676Z" fill="#D3A259"/>
<g clip-path="url(#clip1_236_825)">
<path d="M63.5268 116.154L86.1542 93.527L88.9827 96.3554L66.3553 118.983L63.5268 116.154ZM63.5268 70.8996L40.8994 93.527L55.0415 107.669C58.167 110.795 63.2298 110.795 66.3553 107.669L74.8405 99.1838C77.966 96.0584 77.966 90.9955 74.8405 87.8701L70.5979 83.6275L73.4263 80.7991C74.1765 80.0489 74.5979 79.0315 74.5979 77.9706C74.5979 76.9098 74.1765 75.8923 73.4263 75.1422L69.1837 70.8996C67.6139 69.3298 65.0966 69.3298 63.5268 70.8996ZM72.0121 90.6986C73.5677 92.2542 73.5677 94.7998 72.0121 96.3554L63.5268 104.841C61.9712 106.396 59.4256 106.396 57.87 104.841L46.5563 93.527L60.6984 79.3848L72.0121 90.6986ZM70.5979 77.9706L67.7695 80.7991L63.5268 76.5564L66.3553 73.728L70.5979 77.9706Z" fill="#FBFDF7"/>
</g>
</g>
<defs>
<clipPath id="clip0_236_825">
<rect width="160" height="160" fill="white"/>
</clipPath>
<clipPath id="clip1_236_825">
<rect width="48" height="48" fill="white" transform="translate(31 94.9412) rotate(-45)"/>
</clipPath>
</defs>
</svg>
