<svg width="160" height="160" viewBox="0 0 160 160" fill="none" xmlns="http://www.w3.org/2000/svg">
<g clip-path="url(#clip0_346_750)">
<path d="M157.373 12.9574C157.111 7.36501 152.636 2.88989 147.044 2.62846L91.1214 0.0125993C88.0732 -0.134926 85.1026 1.0187 82.944 3.17789L3.17722 82.9452C1.14332 84.9796 0 87.7382 0 90.6154C0 93.4927 1.14278 96.2518 3.17722 98.2862L61.715 156.823C63.8324 158.941 66.6088 160 69.3852 160C72.1611 160 74.9375 158.941 77.056 156.823L156.822 77.0572C158.981 74.8986 160.131 71.9296 159.988 68.8799L157.373 12.9574ZM136.939 41.2676C131.912 46.2949 123.76 46.2949 118.733 41.2676C113.706 36.2404 113.706 28.0891 118.733 23.0618C123.76 18.0346 131.912 18.0346 136.939 23.0618C141.966 28.0891 141.967 36.2398 136.939 41.2676Z" fill="#04B3A7"/>
<g clip-path="url(#clip1_346_750)">
<path d="M46.202 84.2986L68.1435 83.2535L63.9391 87.4579L48.2074 88.2074L47.4366 104.407L61.3553 118.326L68.4264 111.255L71.2548 114.083L62.7695 122.569C62.3944 122.944 61.8857 123.154 61.3553 123.154C60.8249 123.154 60.3162 122.944 59.9411 122.569L47.2132 109.841L42.9705 114.083L44.2985 86.2021C44.3219 85.7048 44.53 85.2342 44.882 84.8821C45.2341 84.5301 45.7047 84.322 46.202 84.2986ZM61.3553 95.6985L74.0832 82.9706L83.9827 92.8701L71.2548 105.598L61.3553 95.6985ZM67.0122 95.6985L71.2548 99.9412L78.3259 92.8701L74.0832 88.6275L67.0122 95.6985ZM89.6396 95.6985L74.0832 111.255L71.2548 108.426L86.8111 92.8701L89.6396 95.6985Z" fill="#FBFDF7"/>
</g>
</g>
<defs>
<clipPath id="clip0_346_750">
<rect width="160" height="160" fill="white"/>
</clipPath>
<clipPath id="clip1_346_750">
<rect width="48" height="48" fill="white" transform="translate(26 99.9412) rotate(-45)"/>
</clipPath>
</defs>
</svg>
