<svg width="160" height="160" viewBox="0 0 160 160" fill="none" xmlns="http://www.w3.org/2000/svg">
<g clip-path="url(#clip0_236_821)">
<path d="M157.373 12.9574C157.111 7.36501 152.636 2.88989 147.044 2.62846L91.1214 0.0125993C88.0732 -0.134926 85.1026 1.0187 82.944 3.17789L3.17722 82.9452C1.14332 84.9796 0 87.7382 0 90.6154C0 93.4927 1.14278 96.2518 3.17722 98.2862L61.715 156.823C63.8324 158.941 66.6088 160 69.3852 160C72.1611 160 74.9375 158.941 77.056 156.823L156.822 77.0572C158.981 74.8986 160.131 71.9296 159.988 68.8799L157.373 12.9574ZM136.939 41.2676C131.912 46.2949 123.76 46.2949 118.733 41.2676C113.706 36.2404 113.706 28.0891 118.733 23.0618C123.76 18.0346 131.912 18.0346 136.939 23.0618C141.966 28.0891 141.967 36.2398 136.939 41.2676Z" fill="#04B3A7"/>
<g clip-path="url(#clip1_236_821)">
<path d="M82.1539 90.8701L77.9113 86.6274M77.9113 86.6274L49.627 114.912M77.9113 86.6274L63.7692 100.77L56.6981 93.6985L66.5976 83.799C67.7228 82.6738 69.2489 82.0416 70.8402 82.0416C72.4315 82.0416 73.9577 82.6738 75.0829 83.799L77.9113 86.6274ZM41.1418 106.426L53.8697 119.154M46.7986 103.598C47.5488 104.348 48.5662 104.77 49.627 104.77C50.6879 104.77 51.7053 104.348 52.4555 103.598C53.2056 102.848 53.627 101.83 53.627 100.77C53.627 99.7087 53.2056 98.6913 52.4555 97.9411C51.7053 97.191 50.6879 96.7696 49.627 96.7696C48.5662 96.7696 47.5488 97.191 46.7986 97.9411C46.0485 98.6913 45.627 99.7087 45.627 100.77C45.627 101.83 46.0485 102.848 46.7986 103.598Z" stroke="#FBFDF7" stroke-width="4" stroke-linecap="round" stroke-linejoin="round"/>
</g>
</g>
<defs>
<clipPath id="clip0_236_821">
<rect width="160" height="160" fill="white"/>
</clipPath>
<clipPath id="clip1_236_821">
<rect width="48" height="48" fill="white" transform="translate(27 97.9412) rotate(-45)"/>
</clipPath>
</defs>
</svg>
