<svg width="160" height="160" viewBox="0 0 160 160" fill="none" xmlns="http://www.w3.org/2000/svg">
<g clip-path="url(#clip0_236_817)">
<path d="M157.373 12.9574C157.111 7.36501 152.636 2.88989 147.044 2.62846L91.1214 0.0125993C88.0732 -0.134926 85.1026 1.0187 82.944 3.17789L3.17722 82.9452C1.14332 84.9796 0 87.7382 0 90.6154C0 93.4927 1.14278 96.2518 3.17722 98.2862L61.715 156.823C63.8324 158.941 66.6088 160 69.3852 160C72.1611 160 74.9375 158.941 77.056 156.823L156.822 77.0572C158.981 74.8986 160.131 71.9296 159.988 68.8799L157.373 12.9574ZM136.939 41.2676C131.912 46.2949 123.76 46.2949 118.733 41.2676C113.706 36.2404 113.706 28.0891 118.733 23.0618C123.76 18.0346 131.912 18.0346 136.939 23.0618C141.966 28.0891 141.967 36.2398 136.939 41.2676Z" fill="#944E0E"/>
<g clip-path="url(#clip1_236_817)">
<path d="M83.6959 91.5166L80.14 92.4685C80.1278 91.6406 80.2381 90.8154 80.4675 90.0197C80.6136 89.4958 80.5469 88.9353 80.2818 88.4603C80.0167 87.9854 79.5746 87.6344 79.052 87.4837C78.5293 87.3331 77.9682 87.3951 77.491 87.6561C77.0138 87.9172 76.659 88.3562 76.5039 88.8776C76.067 90.3977 75.9219 91.9869 76.0764 93.561L66.8579 96.0244L69.3259 86.8132C70.9001 86.968 72.4893 86.8229 74.0094 86.3857C74.2717 86.3125 74.517 86.1881 74.7309 86.0196C74.9449 85.8512 75.1234 85.642 75.2562 85.4042C75.3889 85.1664 75.4732 84.9047 75.5043 84.6342C75.5353 84.3636 75.5125 84.0896 75.4371 83.8279C75.3617 83.5662 75.2352 83.322 75.0649 83.1095C74.8947 82.8969 74.684 82.7202 74.4451 82.5895C74.2061 82.4588 73.9437 82.3768 73.6729 82.348C73.4021 82.3193 73.1282 82.3445 72.8672 82.4221C72.0715 82.6512 71.2463 82.7615 70.4184 82.7496L71.3703 79.1937C71.4506 78.9291 71.4768 78.6511 71.4474 78.3762C71.4181 78.1013 71.3337 77.8351 71.1995 77.5934C71.0652 77.3518 70.8837 77.1396 70.6657 76.9694C70.4478 76.7993 70.1979 76.6747 69.9308 76.6031C69.6638 76.5315 69.3851 76.5143 69.1113 76.5525C68.8375 76.5908 68.5741 76.6837 68.3369 76.8257C68.0997 76.9678 67.8935 77.1561 67.7305 77.3794C67.5676 77.6027 67.4512 77.8566 67.3882 78.1258L66.4356 81.681C65.7116 81.278 65.051 80.7702 64.4754 80.1742C64.2877 79.9781 64.0633 79.821 63.8148 79.7118C63.5663 79.6027 63.2987 79.5436 63.0274 79.5381C62.756 79.5325 62.4863 79.5806 62.2335 79.6795C61.9808 79.7784 61.7501 79.9263 61.5546 80.1145L61.5274 80.1417C61.1452 80.5238 60.9282 81.0406 60.9232 81.581C60.9181 82.1213 61.1253 82.6421 61.5002 83.0313C62.5973 84.1695 63.8999 85.0896 65.3392 85.7433L62.8731 94.9565L56.1306 88.214C57.0516 86.9283 57.7206 85.4797 58.1021 83.9448C58.2338 83.4139 58.1492 82.8523 57.8669 82.3838C57.5845 81.9152 57.1276 81.578 56.5967 81.4463C56.0657 81.3146 55.5042 81.3992 55.0356 81.6816C54.5671 81.9639 54.2298 82.4208 54.0982 82.9518C53.8978 83.7559 53.5794 84.5259 53.1535 85.2368L50.948 83.0313C50.5612 82.6445 50.0366 82.4272 49.4896 82.4272C48.9426 82.4272 48.418 82.6445 48.0312 83.0313C47.6444 83.4181 47.4271 83.9427 47.4271 84.4897C47.4271 85.0367 47.6444 85.5613 48.0312 85.9481L50.2367 88.1537C49.5258 88.5796 48.7558 88.8979 47.9516 89.0983C47.4207 89.23 46.9638 89.5672 46.6814 90.0358C46.3991 90.5043 46.3145 91.0659 46.4462 91.5968C46.5778 92.1278 46.9151 92.5847 47.3836 92.867C47.8522 93.1493 48.4137 93.234 48.9447 93.1023C50.4795 92.7208 51.9281 92.0518 53.2138 91.1308L59.9563 97.8733L50.7432 100.339C50.0898 98.8991 49.1696 97.5956 48.0312 96.4977C47.642 96.1228 47.1212 95.9156 46.5808 95.9207C46.0404 95.9257 45.5236 96.1427 45.1415 96.5249L45.113 96.5534C44.925 96.7485 44.7773 96.9787 44.6783 97.2308C44.5793 97.483 44.5309 97.7522 44.536 98.0231C44.541 98.294 44.5994 98.5612 44.7077 98.8095C44.8161 99.0578 44.9723 99.2823 45.1674 99.4702C45.7648 100.046 46.2737 100.707 46.6775 101.432L43.1256 102.388C42.8606 102.455 42.6116 102.574 42.393 102.738C42.1744 102.902 41.9906 103.108 41.8522 103.344C41.7139 103.58 41.6238 103.841 41.5871 104.111C41.5505 104.382 41.568 104.658 41.6387 104.922C41.7095 105.186 41.832 105.433 41.9991 105.649C42.1662 105.866 42.3747 106.046 42.6123 106.181C42.85 106.316 43.1121 106.403 43.3834 106.436C43.6548 106.468 43.9299 106.447 44.1929 106.372L47.7488 105.421C47.7607 106.248 47.6504 107.074 47.4213 107.869C47.3436 108.13 47.3185 108.404 47.3472 108.675C47.3759 108.946 47.458 109.208 47.5887 109.447C47.7194 109.686 47.8961 109.897 48.1087 110.067C48.3212 110.237 48.5654 110.364 48.8271 110.439C49.0888 110.515 49.3628 110.537 49.6333 110.506C49.9039 110.475 50.1656 110.391 50.4034 110.258C50.6412 110.126 50.8504 109.947 51.0188 109.733C51.1873 109.519 51.3117 109.274 51.3848 109.012C51.8218 107.491 51.9669 105.902 51.8124 104.328L61.0243 101.858L58.5562 111.069C56.9821 110.915 55.3929 111.06 53.8728 111.497C53.6104 111.57 53.3652 111.694 53.1512 111.863C52.9372 112.031 52.7587 112.24 52.626 112.478C52.4932 112.716 52.4089 112.978 52.3779 113.248C52.3468 113.519 52.3697 113.793 52.4451 114.055C52.5205 114.316 52.647 114.56 52.8172 114.773C52.9875 114.986 53.1982 115.162 53.4371 115.293C53.676 115.424 53.9385 115.506 54.2093 115.534C54.4801 115.563 54.7539 115.538 55.015 115.46C55.8107 115.231 56.6358 115.121 57.4638 115.133L56.5165 118.696C56.442 118.959 56.4205 119.234 56.4533 119.505C56.4861 119.777 56.5726 120.039 56.7075 120.277C56.8425 120.514 57.0234 120.723 57.2397 120.89C57.4559 121.057 57.7032 121.179 57.9672 121.25C58.2312 121.321 58.5067 121.338 58.7775 121.302C59.0484 121.265 59.3092 121.175 59.5449 121.037C59.7807 120.898 59.9865 120.715 60.1506 120.496C60.3146 120.277 60.4336 120.028 60.5006 119.763L61.4532 116.208C62.1772 116.611 62.8378 117.119 63.4134 117.715C63.793 118.108 64.3131 118.334 64.8595 118.344C65.4059 118.354 65.9339 118.147 66.3276 117.768L66.3547 117.741C66.7369 117.359 66.9539 116.842 66.959 116.302C66.9641 115.761 66.7569 115.24 66.3819 114.851C65.2849 113.713 63.9823 112.793 62.543 112.139L65.009 102.926L71.7515 109.668C70.8305 110.954 70.1615 112.403 69.78 113.938C69.6483 114.469 69.733 115.03 70.0153 115.499C70.2976 115.967 70.7545 116.304 71.2855 116.436C71.8165 116.568 72.378 116.483 72.8465 116.201C73.3151 115.919 73.6523 115.462 73.784 114.931C73.9844 114.127 74.3027 113.357 74.7287 112.646L76.9342 114.851C77.321 115.238 77.8456 115.455 78.3926 115.455C78.9396 115.455 79.4642 115.238 79.851 114.851C80.2378 114.464 80.4551 113.94 80.4551 113.393C80.4551 112.846 80.2378 112.321 79.851 111.934L77.6455 109.729C78.3564 109.303 79.1264 108.985 79.9305 108.784C80.4615 108.652 80.9184 108.315 81.2007 107.847C81.4831 107.378 81.5677 106.817 81.436 106.286C81.3043 105.755 80.9671 105.298 80.4985 105.015C80.03 104.733 79.4685 104.648 78.9375 104.78C77.4027 105.162 75.954 105.831 74.6683 106.752L67.9258 100.009L77.139 97.5431C77.7924 98.9834 78.7126 100.287 79.851 101.385C80.2402 101.76 80.761 101.967 81.3014 101.962C81.8417 101.957 82.3586 101.74 82.7406 101.358L82.7691 101.329C82.9571 101.134 83.1048 100.904 83.2039 100.652C83.3029 100.399 83.3512 100.13 83.3462 99.8594C83.3411 99.5885 83.2828 99.3213 83.1744 99.073C83.0661 98.8247 82.9099 98.6001 82.7148 98.4122C82.1174 97.8362 81.6085 97.175 81.2047 96.45L84.7598 95.4974C85.0324 95.438 85.29 95.3239 85.5172 95.1621C85.7444 95.0003 85.9364 94.794 86.0816 94.5559C86.2269 94.3177 86.3222 94.0526 86.362 93.7765C86.4018 93.5004 86.3852 93.2191 86.3132 92.9496C86.2412 92.6802 86.1152 92.4281 85.943 92.2087C85.7708 91.9893 85.5558 91.8071 85.3112 91.6731C85.0665 91.5392 84.7972 91.4562 84.5196 91.4293C84.2419 91.4024 83.9617 91.4321 83.6959 91.5166Z" fill="#FBFDF7"/>
</g>
</g>
<defs>
<clipPath id="clip0_236_817">
<rect width="160" height="160" fill="white"/>
</clipPath>
<clipPath id="clip1_236_817">
<rect width="48" height="48" fill="white" transform="translate(30 98.9412) rotate(-45)"/>
</clipPath>
</defs>
</svg>
