<svg width="74" height="73" viewBox="0 0 74 73" fill="none" xmlns="http://www.w3.org/2000/svg">
<g id="Group 1">
<g id="Vector 7">
<path d="M2.66198 23.8697L0.158691 18.5156L35.2601 0.668031C36.6184 -0.0110874 37.2975 -0.0110897 38.6558 0.668031L73.8414 18.5156L70.9094 23.8697L38.6558 7.45932C37.2975 6.78019 36.8286 6.78019 35.4703 7.45932L2.66198 23.8697Z" fill="#04B3A7"/>
<path d="M8.77413 31.9079C7.17002 29.7338 4.36549 29.7338 2.66198 31.9079V72.6556H8.77413V62.7508H65.8209V72.6556H71.933V56.3565H8.77413V31.9079Z" fill="#04B3A7"/>
<path d="M71.933 53.3173H12.1698V47.5808C12.1698 47.5808 12.1951 47.2724 12.3967 47.0709C12.5241 46.9434 12.9066 46.9434 12.9066 46.9434H24.7621V37.51L68.5374 41.4157C70.527 41.5893 71.6743 42.9916 71.933 44.8113V53.3173Z" fill="#04B3A7"/>
</g>
<circle id="Ellipse 9" cx="17.5278" cy="39.85" r="5.43302" fill="#04B3A7"/>
</g>
</svg>
