<svg width="185" height="80" viewBox="0 0 185 80" fill="none" xmlns="http://www.w3.org/2000/svg">
<g id="Group" style="mix-blend-mode:multiply">
<path id="Vector" fill-rule="evenodd" clip-rule="evenodd" d="M84.8994 25.5784C91.8517 34.3552 114.255 44.3327 135.318 28.4552C156.381 12.5777 180.555 20.5988 185 39.7615C175.828 30.1009 157.815 25.9441 139.589 37.8233C118.688 51.4517 96.0855 52.1831 84.8994 25.5723V25.5784Z" fill="#005F70"/>
<g id="Group_2">
<path id="Vector_2" fill-rule="evenodd" clip-rule="evenodd" d="M5 25.5784C11.9523 34.3552 34.3556 44.3327 55.4184 28.4552C76.4811 12.5777 100.655 20.5988 105.101 39.7615C95.9289 30.1009 77.9153 25.9441 59.6896 37.8233C38.7889 51.4517 16.1861 52.1831 5 25.5723V25.5784Z" fill="#04B3A7" stroke="white" stroke-width="9.98727" stroke-miterlimit="22.93"/>
<path id="Vector_3" fill-rule="evenodd" clip-rule="evenodd" d="M5 25.5784C11.9523 34.3552 34.3556 44.3327 55.4184 28.4552C76.4811 12.5777 100.655 20.5988 105.101 39.7615C95.9289 30.1009 77.9153 25.9441 59.6896 37.8233C38.7889 51.4517 16.1861 52.1831 5 25.5723V25.5784Z" fill="#04B3A7"/>
</g>
<g id="Group_3">
<path id="Vector_4" fill-rule="evenodd" clip-rule="evenodd" d="M31.5863 35.9217C39.979 46.5148 67.0276 58.5586 92.4488 39.3959C117.87 20.2331 147.057 29.9181 152.42 53.0487C141.346 41.3828 119.603 36.3666 97.5991 50.7143C72.365 67.1648 45.0794 68.0485 31.5801 35.9278L31.5863 35.9217Z" stroke="white" stroke-width="9.98727" stroke-miterlimit="22.93"/>
<path id="Vector_5" fill-rule="evenodd" clip-rule="evenodd" d="M31.5863 35.9217C39.979 46.5148 67.0276 58.5586 92.4488 39.3959C117.87 20.2331 147.057 29.9181 152.42 53.0487C141.346 41.3828 119.603 36.3666 97.5991 50.7143C72.365 67.1648 45.0794 68.0485 31.5801 35.9278L31.5863 35.9217Z" fill="#005F70"/>
</g>
<path id="Vector_6" fill-rule="evenodd" clip-rule="evenodd" d="M180.024 64.3913C180.342 48.337 155.127 47.8738 157.172 64.3913C160.215 55.0355 174.942 53.9444 180.024 64.3913Z" fill="#287784"/>
<path id="Vector_7" fill-rule="evenodd" clip-rule="evenodd" d="M34.4316 61.9655C85.0184 100.809 117.354 26.4742 151.567 64.757C113.545 38.3717 73.7263 112.341 34.4316 61.9655Z" fill="#287784"/>
<path id="Vector_8" fill-rule="evenodd" clip-rule="evenodd" d="M29.6226 64.3913C29.9406 48.337 4.7252 47.8738 6.77037 64.3913C9.81318 55.0355 24.5409 53.9444 29.6226 64.3913Z" fill="#287784"/>
</g>
</svg>
